<?xml version="1.0" standalone="no"?>
<!DOCTYPE svg PUBLIC "-//W3C//DTD SVG 20010904//EN"
 "http://www.w3.org/TR/2001/REC-SVG-20010904/DTD/svg10.dtd">
<svg version="1.0" xmlns="http://www.w3.org/2000/svg"
 width="150.000000pt" height="150.000000pt" viewBox="0 0 150.000000 150.000000"
 preserveAspectRatio="xMidYMid meet">

<g transform="translate(0.000000,150.000000) scale(0.100000,-0.100000)"
fill="#000000" stroke="none">
<path d="M620 1435 c-153 -35 -259 -93 -363 -198 -226 -232 -263 -601 -84
-867 272 -407 860 -423 1149 -32 147 199 175 473 71 704 l-26 58 -79 0 -80 0
7 88 7 88 -34 26 c-58 44 -159 95 -233 118 -92 28 -247 35 -335 15z m336 -179
c97 -37 114 -54 114 -116 l0 -50 -60 0 -61 0 3 -62 3 -63 63 -3 62 -3 0 -154
c0 -137 -2 -155 -17 -163 -35 -18 -43 -4 -43 78 l0 78 -31 7 c-17 4 -46 4 -65
1 l-34 -7 0 -72 c0 -81 -11 -108 -35 -92 -13 8 -16 38 -18 165 -2 173 -10 199
-66 237 -40 27 -107 31 -151 8 -26 -13 -32 -13 -72 5 -70 31 -120 15 -168 -52
l-30 -41 0 -285 c0 -277 -1 -285 -19 -268 -50 45 -109 196 -117 301 -21 252
156 499 407 570 86 24 246 15 335 -19z m331 -353 c13 -42 18 -88 17 -168 -1
-128 -20 -191 -86 -293 -132 -202 -395 -293 -626 -216 -42 14 -87 32 -99 40
l-23 14 0 313 c0 171 4 318 9 326 5 8 16 11 25 8 13 -5 16 -24 16 -106 0 -90
2 -102 22 -120 12 -12 30 -23 40 -27 19 -6 78 24 79 41 0 5 0 51 -1 101 -1 95
11 124 45 110 13 -4 15 -33 15 -175 0 -180 5 -209 48 -254 31 -32 88 -37 151
-11 37 15 44 15 86 -1 54 -21 126 -16 157 11 49 44 58 86 58 282 l0 182 25 0
c21 0 27 -8 42 -57z"/>
</g>
</svg>
